<?xml version="1.0" encoding="UTF-8" standalone="no"?>
<!DOCTYPE svg PUBLIC "-//W3C//DTD SVG 1.1//EN"
 "http://www.w3.org/Graphics/SVG/1.1/DTD/svg11.dtd">
<!-- Generated by graphviz version 2.36.0 (20140111.2315)
 -->
<!-- Title: controllers_diagram Pages: 1 -->
<svg width="677pt" height="583pt"
 viewBox="0.00 0.00 677.00 583.00" xmlns="http://www.w3.org/2000/svg" xmlns:xlink="http://www.w3.org/1999/xlink">
<g id="graph0" class="graph" transform="scale(1 1) rotate(0) translate(4 579)">
<title>controllers_diagram</title>
<polygon fill="none" stroke="none" points="-4,4 -4,-579 673,-579 673,4 -4,4"/>
<!-- _diagram_info -->
<g id="node1" class="node"><title>_diagram_info</title>
<text text-anchor="start" x="120" y="-431.6" font-family="Times,serif" font-size="13.00">Controllers diagram</text>
<text text-anchor="start" x="120" y="-417.6" font-family="Times,serif" font-size="13.00">Date: Dec 06 2017 &#45; 13:38</text>
<text text-anchor="start" x="120" y="-403.6" font-family="Times,serif" font-size="13.00">Migration version: 20171203105936</text>
<text text-anchor="start" x="120" y="-389.6" font-family="Times,serif" font-size="13.00">Generated by RailRoady 1.5.3</text>
<text text-anchor="start" x="120" y="-375.6" font-family="Times,serif" font-size="13.00">http://railroady.prestonlee.com</text>
</g>
<!-- OrderItemsController -->
<g id="node2" class="node"><title>OrderItemsController</title>
<path fill="none" stroke="black" d="M348,-144.5C348,-144.5 458,-144.5 458,-144.5 464,-144.5 470,-150.5 470,-156.5 470,-156.5 470,-300.5 470,-300.5 470,-306.5 464,-312.5 458,-312.5 458,-312.5 348,-312.5 348,-312.5 342,-312.5 336,-306.5 336,-300.5 336,-300.5 336,-156.5 336,-156.5 336,-150.5 342,-144.5 348,-144.5"/>
<text text-anchor="middle" x="403" y="-297.3" font-family="Times,serif" font-size="14.00">OrderItemsController</text>
<polyline fill="none" stroke="black" points="336,-289.5 470,-289.5 "/>
<text text-anchor="start" x="344" y="-274.3" font-family="Times,serif" font-size="14.00">create</text>
<text text-anchor="start" x="344" y="-259.3" font-family="Times,serif" font-size="14.00">destroy</text>
<text text-anchor="start" x="344" y="-244.3" font-family="Times,serif" font-size="14.00">index</text>
<text text-anchor="start" x="344" y="-229.3" font-family="Times,serif" font-size="14.00">update</text>
<polyline fill="none" stroke="black" points="336,-221.5 470,-221.5 "/>
<polyline fill="none" stroke="black" points="336,-197.5 470,-197.5 "/>
<text text-anchor="start" x="344" y="-182.3" font-family="Times,serif" font-size="14.00">_layout</text>
<text text-anchor="start" x="344" y="-167.3" font-family="Times,serif" font-size="14.00">order_item_params</text>
<text text-anchor="start" x="344" y="-152.3" font-family="Times,serif" font-size="14.00">set_order_item</text>
</g>
<!-- ProductsController -->
<g id="node3" class="node"><title>ProductsController</title>
<path fill="none" stroke="black" d="M12,-0.5C12,-0.5 107,-0.5 107,-0.5 113,-0.5 119,-6.5 119,-12.5 119,-12.5 119,-111.5 119,-111.5 119,-117.5 113,-123.5 107,-123.5 107,-123.5 12,-123.5 12,-123.5 6,-123.5 -2.84217e-14,-117.5 -2.84217e-14,-111.5 -2.84217e-14,-111.5 -2.84217e-14,-12.5 -2.84217e-14,-12.5 -2.84217e-14,-6.5 6,-0.5 12,-0.5"/>
<text text-anchor="middle" x="59.5" y="-108.3" font-family="Times,serif" font-size="14.00">ProductsController</text>
<polyline fill="none" stroke="black" points="-2.84217e-14,-100.5 119,-100.5 "/>
<text text-anchor="start" x="8" y="-85.3" font-family="Times,serif" font-size="14.00">index</text>
<text text-anchor="start" x="8" y="-70.3" font-family="Times,serif" font-size="14.00">show</text>
<polyline fill="none" stroke="black" points="-2.84217e-14,-62.5 119,-62.5 "/>
<polyline fill="none" stroke="black" points="-2.84217e-14,-38.5 119,-38.5 "/>
<text text-anchor="start" x="8" y="-23.3" font-family="Times,serif" font-size="14.00">_layout</text>
<text text-anchor="start" x="8" y="-8.3" font-family="Times,serif" font-size="14.00">address_params</text>
</g>
<!-- AddressesController -->
<g id="node4" class="node"><title>AddressesController</title>
<path fill="none" stroke="black" d="M188,-128.5C188,-128.5 292,-128.5 292,-128.5 298,-128.5 304,-134.5 304,-140.5 304,-140.5 304,-314.5 304,-314.5 304,-320.5 298,-326.5 292,-326.5 292,-326.5 188,-326.5 188,-326.5 182,-326.5 176,-320.5 176,-314.5 176,-314.5 176,-140.5 176,-140.5 176,-134.5 182,-128.5 188,-128.5"/>
<text text-anchor="middle" x="240" y="-311.3" font-family="Times,serif" font-size="14.00">AddressesController</text>
<polyline fill="none" stroke="black" points="176,-303.5 304,-303.5 "/>
<text text-anchor="start" x="184" y="-288.3" font-family="Times,serif" font-size="14.00">create</text>
<text text-anchor="start" x="184" y="-273.3" font-family="Times,serif" font-size="14.00">destroy</text>
<text text-anchor="start" x="184" y="-258.3" font-family="Times,serif" font-size="14.00">edit</text>
<text text-anchor="start" x="184" y="-243.3" font-family="Times,serif" font-size="14.00">index</text>
<text text-anchor="start" x="184" y="-228.3" font-family="Times,serif" font-size="14.00">new</text>
<text text-anchor="start" x="184" y="-213.3" font-family="Times,serif" font-size="14.00">update</text>
<polyline fill="none" stroke="black" points="176,-205.5 304,-205.5 "/>
<polyline fill="none" stroke="black" points="176,-181.5 304,-181.5 "/>
<text text-anchor="start" x="184" y="-166.3" font-family="Times,serif" font-size="14.00">_layout</text>
<text text-anchor="start" x="184" y="-151.3" font-family="Times,serif" font-size="14.00">address_params</text>
<text text-anchor="start" x="184" y="-136.3" font-family="Times,serif" font-size="14.00">set_address</text>
</g>
<!-- ApplicationController -->
<g id="node5" class="node"><title>ApplicationController</title>
<path fill="none" stroke="black" d="M508,-144.5C508,-144.5 620,-144.5 620,-144.5 626,-144.5 632,-150.5 632,-156.5 632,-156.5 632,-226.5 632,-226.5 632,-232.5 626,-238.5 620,-238.5 620,-238.5 508,-238.5 508,-238.5 502,-238.5 496,-232.5 496,-226.5 496,-226.5 496,-156.5 496,-156.5 496,-150.5 502,-144.5 508,-144.5"/>
<text text-anchor="middle" x="564" y="-223.3" font-family="Times,serif" font-size="14.00">ApplicationController</text>
<polyline fill="none" stroke="black" points="496,-215.5 632,-215.5 "/>
<polyline fill="none" stroke="black" points="496,-191.5 632,-191.5 "/>
<polyline fill="none" stroke="black" points="496,-167.5 632,-167.5 "/>
<text text-anchor="start" x="504" y="-152.3" font-family="Times,serif" font-size="14.00">_layout</text>
</g>
<!-- OrdersController -->
<g id="node6" class="node"><title>OrdersController</title>
<path fill="none" stroke="black" d="M44,-160.5C44,-160.5 129,-160.5 129,-160.5 135,-160.5 141,-166.5 141,-172.5 141,-172.5 141,-316.5 141,-316.5 141,-322.5 135,-328.5 129,-328.5 129,-328.5 44,-328.5 44,-328.5 38,-328.5 32,-322.5 32,-316.5 32,-316.5 32,-172.5 32,-172.5 32,-166.5 38,-160.5 44,-160.5"/>
<text text-anchor="middle" x="86.5" y="-313.3" font-family="Times,serif" font-size="14.00">OrdersController</text>
<polyline fill="none" stroke="black" points="32,-305.5 141,-305.5 "/>
<text text-anchor="start" x="40" y="-290.3" font-family="Times,serif" font-size="14.00">create</text>
<text text-anchor="start" x="40" y="-275.3" font-family="Times,serif" font-size="14.00">index</text>
<text text-anchor="start" x="40" y="-260.3" font-family="Times,serif" font-size="14.00">new</text>
<text text-anchor="start" x="40" y="-245.3" font-family="Times,serif" font-size="14.00">show</text>
<polyline fill="none" stroke="black" points="32,-237.5 141,-237.5 "/>
<polyline fill="none" stroke="black" points="32,-213.5 141,-213.5 "/>
<text text-anchor="start" x="40" y="-198.3" font-family="Times,serif" font-size="14.00">_layout</text>
<text text-anchor="start" x="40" y="-183.3" font-family="Times,serif" font-size="14.00">order_params</text>
<text text-anchor="start" x="40" y="-168.3" font-family="Times,serif" font-size="14.00">set_order</text>
</g>
<!-- Users::OmniauthCallbacksController -->
<g id="node7" class="node"><title>Users::OmniauthCallbacksController</title>
<path fill="none" stroke="black" d="M364,-352.5C364,-352.5 558,-352.5 558,-352.5 564,-352.5 570,-358.5 570,-364.5 570,-364.5 570,-434.5 570,-434.5 570,-440.5 564,-446.5 558,-446.5 558,-446.5 364,-446.5 364,-446.5 358,-446.5 352,-440.5 352,-434.5 352,-434.5 352,-364.5 352,-364.5 352,-358.5 358,-352.5 364,-352.5"/>
<text text-anchor="middle" x="461" y="-431.3" font-family="Times,serif" font-size="14.00">Users::OmniauthCallbacksController</text>
<polyline fill="none" stroke="black" points="352,-423.5 570,-423.5 "/>
<polyline fill="none" stroke="black" points="352,-399.5 570,-399.5 "/>
<polyline fill="none" stroke="black" points="352,-375.5 570,-375.5 "/>
<text text-anchor="start" x="360" y="-360.3" font-family="Times,serif" font-size="14.00">_layout</text>
</g>
<!-- Users::PasswordsController -->
<g id="node8" class="node"><title>Users::PasswordsController</title>
<path fill="none" stroke="black" d="M300,-480.5C300,-480.5 443,-480.5 443,-480.5 449,-480.5 455,-486.5 455,-492.5 455,-492.5 455,-562.5 455,-562.5 455,-568.5 449,-574.5 443,-574.5 443,-574.5 300,-574.5 300,-574.5 294,-574.5 288,-568.5 288,-562.5 288,-562.5 288,-492.5 288,-492.5 288,-486.5 294,-480.5 300,-480.5"/>
<text text-anchor="middle" x="371.5" y="-559.3" font-family="Times,serif" font-size="14.00">Users::PasswordsController</text>
<polyline fill="none" stroke="black" points="288,-551.5 455,-551.5 "/>
<polyline fill="none" stroke="black" points="288,-527.5 455,-527.5 "/>
<polyline fill="none" stroke="black" points="288,-503.5 455,-503.5 "/>
<text text-anchor="start" x="296" y="-488.3" font-family="Times,serif" font-size="14.00">_layout</text>
</g>
<!-- Users::ConfirmationsController -->
<g id="node9" class="node"><title>Users::ConfirmationsController</title>
<path fill="none" stroke="black" d="M492,-480.5C492,-480.5 657,-480.5 657,-480.5 663,-480.5 669,-486.5 669,-492.5 669,-492.5 669,-562.5 669,-562.5 669,-568.5 663,-574.5 657,-574.5 657,-574.5 492,-574.5 492,-574.5 486,-574.5 480,-568.5 480,-562.5 480,-562.5 480,-492.5 480,-492.5 480,-486.5 486,-480.5 492,-480.5"/>
<text text-anchor="middle" x="574.5" y="-559.3" font-family="Times,serif" font-size="14.00">Users::ConfirmationsController</text>
<polyline fill="none" stroke="black" points="480,-551.5 669,-551.5 "/>
<polyline fill="none" stroke="black" points="480,-527.5 669,-527.5 "/>
<polyline fill="none" stroke="black" points="480,-503.5 669,-503.5 "/>
<text text-anchor="start" x="488" y="-488.3" font-family="Times,serif" font-size="14.00">_layout</text>
</g>
<!-- Users::RegistrationsController -->
<g id="node10" class="node"><title>Users::RegistrationsController</title>
<path fill="none" stroke="black" d="M348,-0.5C348,-0.5 506,-0.5 506,-0.5 512,-0.5 518,-6.5 518,-12.5 518,-12.5 518,-96.5 518,-96.5 518,-102.5 512,-108.5 506,-108.5 506,-108.5 348,-108.5 348,-108.5 342,-108.5 336,-102.5 336,-96.5 336,-96.5 336,-12.5 336,-12.5 336,-6.5 342,-0.5 348,-0.5"/>
<text text-anchor="middle" x="427" y="-93.3" font-family="Times,serif" font-size="14.00">Users::RegistrationsController</text>
<polyline fill="none" stroke="black" points="336,-85.5 518,-85.5 "/>
<text text-anchor="start" x="344" y="-70.3" font-family="Times,serif" font-size="14.00">account_update_params</text>
<text text-anchor="start" x="344" y="-55.3" font-family="Times,serif" font-size="14.00">sign_up_params</text>
<polyline fill="none" stroke="black" points="336,-47.5 518,-47.5 "/>
<polyline fill="none" stroke="black" points="336,-23.5 518,-23.5 "/>
<text text-anchor="start" x="344" y="-8.3" font-family="Times,serif" font-size="14.00">_layout</text>
</g>
<!-- Users::UnlocksController -->
<g id="node11" class="node"><title>Users::UnlocksController</title>
<path fill="none" stroke="black" d="M108,-480.5C108,-480.5 239,-480.5 239,-480.5 245,-480.5 251,-486.5 251,-492.5 251,-492.5 251,-562.5 251,-562.5 251,-568.5 245,-574.5 239,-574.5 239,-574.5 108,-574.5 108,-574.5 102,-574.5 96,-568.5 96,-562.5 96,-562.5 96,-492.5 96,-492.5 96,-486.5 102,-480.5 108,-480.5"/>
<text text-anchor="middle" x="173.5" y="-559.3" font-family="Times,serif" font-size="14.00">Users::UnlocksController</text>
<polyline fill="none" stroke="black" points="96,-551.5 251,-551.5 "/>
<polyline fill="none" stroke="black" points="96,-527.5 251,-527.5 "/>
<polyline fill="none" stroke="black" points="96,-503.5 251,-503.5 "/>
<text text-anchor="start" x="104" y="-488.3" font-family="Times,serif" font-size="14.00">_layout</text>
</g>
<!-- Users::SessionsController -->
<g id="node12" class="node"><title>Users::SessionsController</title>
<path fill="none" stroke="black" d="M156,-0.5C156,-0.5 289,-0.5 289,-0.5 295,-0.5 301,-6.5 301,-12.5 301,-12.5 301,-82.5 301,-82.5 301,-88.5 295,-94.5 289,-94.5 289,-94.5 156,-94.5 156,-94.5 150,-94.5 144,-88.5 144,-82.5 144,-82.5 144,-12.5 144,-12.5 144,-6.5 150,-0.5 156,-0.5"/>
<text text-anchor="middle" x="222.5" y="-79.3" font-family="Times,serif" font-size="14.00">Users::SessionsController</text>
<polyline fill="none" stroke="black" points="144,-71.5 301,-71.5 "/>
<polyline fill="none" stroke="black" points="144,-47.5 301,-47.5 "/>
<polyline fill="none" stroke="black" points="144,-23.5 301,-23.5 "/>
<text text-anchor="start" x="152" y="-8.3" font-family="Times,serif" font-size="14.00">_layout</text>
</g>
</g>
</svg>
