<?xml version="1.0" encoding="UTF-8" standalone="no"?>
<!DOCTYPE svg PUBLIC "-//W3C//DTD SVG 1.1//EN"
 "http://www.w3.org/Graphics/SVG/1.1/DTD/svg11.dtd">
<!-- Generated by graphviz version 2.36.0 (20140111.2315)
 -->
<!-- Title: models_diagram Pages: 1 -->
<svg width="1331pt" height="302pt"
 viewBox="0.00 0.00 1331.00 302.00" xmlns="http://www.w3.org/2000/svg" xmlns:xlink="http://www.w3.org/1999/xlink">
<g id="graph0" class="graph" transform="scale(1 1) rotate(0) translate(4 298)">
<title>models_diagram</title>
<polygon fill="none" stroke="none" points="-4,4 -4,-298 1327,-298 1327,4 -4,4"/>
<!-- _diagram_info -->
<g id="node1" class="node"><title>_diagram_info</title>
<text text-anchor="start" x="8" y="-279.6" font-family="Times,serif" font-size="13.00">Models diagram</text>
<text text-anchor="start" x="8" y="-265.6" font-family="Times,serif" font-size="13.00">Date: Dec 06 2017 &#45; 13:38</text>
<text text-anchor="start" x="8" y="-251.6" font-family="Times,serif" font-size="13.00">Migration version: 20171203105936</text>
<text text-anchor="start" x="8" y="-237.6" font-family="Times,serif" font-size="13.00">Generated by RailRoady 1.5.3</text>
<text text-anchor="start" x="8" y="-223.6" font-family="Times,serif" font-size="13.00">http://railroady.prestonlee.com</text>
</g>
<!-- Category -->
<g id="node2" class="node"><title>Category</title>
<ellipse fill="none" stroke="black" cx="275" cy="-255" rx="42.3456" ry="18"/>
<text text-anchor="middle" x="275" y="-251.3" font-family="Times,serif" font-size="14.00">Category</text>
</g>
<!-- SubCategory -->
<g id="node5" class="node"><title>SubCategory</title>
<ellipse fill="none" stroke="black" cx="275" cy="-162" rx="56.3173" ry="18"/>
<text text-anchor="middle" x="275" y="-158.3" font-family="Times,serif" font-size="14.00">SubCategory</text>
</g>
<!-- Category&#45;&gt;SubCategory -->
<g id="edge1" class="edge"><title>Category&#45;&gt;SubCategory</title>
<path fill="none" stroke="#e1e49f" d="M275,-228.729C275,-216.725 275,-202.362 275,-190.129"/>
<ellipse fill="none" stroke="#e1e49f" cx="275" cy="-232.884" rx="4" ry="4"/>
<polygon fill="#e1e49f" stroke="#e1e49f" points="275,-190.04 279.5,-180.04 275,-185.04 275,-180.04 275,-180.04 275,-180.04 275,-185.04 270.5,-180.04 275,-190.04 275,-190.04"/>
</g>
<!-- ProductCharacteristic -->
<g id="node3" class="node"><title>ProductCharacteristic</title>
<ellipse fill="none" stroke="black" cx="275" cy="-18" rx="87.1385" ry="18"/>
<text text-anchor="middle" x="275" y="-14.3" font-family="Times,serif" font-size="14.00">ProductCharacteristic</text>
</g>
<!-- Address -->
<g id="node4" class="node"><title>Address</title>
<ellipse fill="none" stroke="black" cx="389" cy="-162" rx="39.4691" ry="18"/>
<text text-anchor="middle" x="389" y="-158.3" font-family="Times,serif" font-size="14.00">Address</text>
</g>
<!-- Product -->
<g id="node14" class="node"><title>Product</title>
<ellipse fill="none" stroke="black" cx="217" cy="-90" rx="38.0212" ry="18"/>
<text text-anchor="middle" x="217" y="-86.3" font-family="Times,serif" font-size="14.00">Product</text>
</g>
<!-- SubCategory&#45;&gt;Product -->
<g id="edge2" class="edge"><title>SubCategory&#45;&gt;Product</title>
<path fill="none" stroke="#f7eff1" d="M255.945,-138.003C249.768,-130.548 242.907,-122.267 236.685,-114.757"/>
<ellipse fill="none" stroke="#f7eff1" cx="258.703" cy="-141.331" rx="4.00002" ry="4.00002"/>
<polygon fill="#f7eff1" stroke="#f7eff1" points="236.628,-114.688 233.712,-104.117 233.437,-110.838 230.247,-106.988 230.247,-106.988 230.247,-106.988 233.437,-110.838 226.782,-109.859 236.628,-114.688 236.628,-114.688"/>
</g>
<!-- Characteristic -->
<g id="node15" class="node"><title>Characteristic</title>
<ellipse fill="none" stroke="black" cx="333" cy="-90" rx="59.1941" ry="18"/>
<text text-anchor="middle" x="333" y="-86.3" font-family="Times,serif" font-size="14.00">Characteristic</text>
</g>
<!-- SubCategory&#45;&gt;Characteristic -->
<g id="edge3" class="edge"><title>SubCategory&#45;&gt;Characteristic</title>
<path fill="none" stroke="#d312af" d="M293.897,-138.194C299.758,-131.119 306.249,-123.285 312.231,-116.066"/>
<ellipse fill="none" stroke="#d312af" cx="291.297" cy="-141.331" rx="4.00002" ry="4.00002"/>
<polygon fill="#d312af" stroke="#d312af" points="312.57,-115.656 322.416,-110.827 315.76,-111.806 318.951,-107.956 318.951,-107.956 318.951,-107.956 315.76,-111.806 315.485,-105.085 312.57,-115.656 312.57,-115.656"/>
</g>
<!-- ApplicationRecord -->
<g id="node6" class="node"><title>ApplicationRecord</title>
<ellipse fill="none" stroke="black" cx="512" cy="-255" rx="77.0154" ry="18"/>
<text text-anchor="middle" x="512" y="-251.3" font-family="Times,serif" font-size="14.00">ApplicationRecord</text>
</g>
<!-- Order -->
<g id="node7" class="node"><title>Order</title>
<ellipse fill="none" stroke="black" cx="639" cy="-255" rx="31.2965" ry="18"/>
<text text-anchor="middle" x="639" y="-251.3" font-family="Times,serif" font-size="14.00">Order</text>
</g>
<!-- OrderItem -->
<g id="node13" class="node"><title>OrderItem</title>
<ellipse fill="none" stroke="black" cx="639" cy="-162" rx="48.1437" ry="18"/>
<text text-anchor="middle" x="639" y="-158.3" font-family="Times,serif" font-size="14.00">OrderItem</text>
</g>
<!-- Order&#45;&gt;OrderItem -->
<g id="edge4" class="edge"><title>Order&#45;&gt;OrderItem</title>
<path fill="none" stroke="#74af10" d="M639,-228.729C639,-216.725 639,-202.362 639,-190.129"/>
<ellipse fill="none" stroke="#74af10" cx="639" cy="-232.884" rx="4" ry="4"/>
<polygon fill="#74af10" stroke="#74af10" points="639,-190.04 643.5,-180.04 639,-185.04 639,-180.04 639,-180.04 639,-180.04 639,-185.04 634.5,-180.04 639,-190.04 639,-190.04"/>
</g>
<!-- Ckeditor::AttachmentFile -->
<g id="node8" class="node"><title>Ckeditor::AttachmentFile</title>
<ellipse fill="none" stroke="black" cx="790" cy="-255" rx="101.087" ry="18"/>
<text text-anchor="middle" x="790" y="-251.3" font-family="Times,serif" font-size="14.00">Ckeditor::AttachmentFile</text>
</g>
<!-- Ckeditor::Picture -->
<g id="node9" class="node"><title>Ckeditor::Picture</title>
<ellipse fill="none" stroke="black" cx="981" cy="-255" rx="71.2405" ry="18"/>
<text text-anchor="middle" x="981" y="-251.3" font-family="Times,serif" font-size="14.00">Ckeditor::Picture</text>
</g>
<!-- Ckeditor::Asset -->
<g id="node10" class="node"><title>Ckeditor::Asset</title>
<ellipse fill="none" stroke="black" cx="1136" cy="-255" rx="65.4659" ry="18"/>
<text text-anchor="middle" x="1136" y="-251.3" font-family="Times,serif" font-size="14.00">Ckeditor::Asset</text>
</g>
<!-- User -->
<g id="node11" class="node"><title>User</title>
<ellipse fill="none" stroke="black" cx="389" cy="-255" rx="26.949" ry="18"/>
<text text-anchor="middle" x="389" y="-251.3" font-family="Times,serif" font-size="14.00">User</text>
</g>
<!-- User&#45;&gt;Address -->
<g id="edge5" class="edge"><title>User&#45;&gt;Address</title>
<path fill="none" stroke="#ad2fe3" d="M389,-228.729C389,-216.725 389,-202.362 389,-190.129"/>
<ellipse fill="none" stroke="#ad2fe3" cx="389" cy="-232.884" rx="4" ry="4"/>
<polygon fill="#ad2fe3" stroke="#ad2fe3" points="389,-190.04 393.5,-180.04 389,-185.04 389,-180.04 389,-180.04 389,-180.04 389,-185.04 384.5,-180.04 389,-190.04 389,-190.04"/>
</g>
<!-- AdminUser -->
<g id="node12" class="node"><title>AdminUser</title>
<ellipse fill="none" stroke="black" cx="1272" cy="-255" rx="51.4931" ry="18"/>
<text text-anchor="middle" x="1272" y="-251.3" font-family="Times,serif" font-size="14.00">AdminUser</text>
</g>
<!-- Product&#45;&gt;ProductCharacteristic -->
<g id="edge6" class="edge"><title>Product&#45;&gt;ProductCharacteristic</title>
<path fill="none" stroke="#b7dae1" d="M235.607,-66.5431C241.609,-59.2998 248.295,-51.2305 254.429,-43.8265"/>
<ellipse fill="none" stroke="#b7dae1" cx="233.004" cy="-69.6846" rx="4.00002" ry="4.00002"/>
<polygon fill="#b7dae1" stroke="#b7dae1" points="254.431,-43.8242 264.277,-38.995 257.621,-39.974 260.812,-36.1239 260.812,-36.1239 260.812,-36.1239 257.621,-39.974 257.346,-33.2528 254.431,-43.8242 254.431,-43.8242"/>
</g>
<!-- Characteristic&#45;&gt;ProductCharacteristic -->
<g id="edge7" class="edge"><title>Characteristic&#45;&gt;ProductCharacteristic</title>
<path fill="none" stroke="#12a55e" d="M314.103,-66.1935C308.242,-59.1192 301.751,-51.2853 295.769,-44.0661"/>
<ellipse fill="none" stroke="#12a55e" cx="316.703" cy="-69.3309" rx="4.00002" ry="4.00002"/>
<polygon fill="#12a55e" stroke="#12a55e" points="295.43,-43.6564 292.515,-33.0851 292.24,-39.8063 289.049,-35.9562 289.049,-35.9562 289.049,-35.9562 292.24,-39.8063 285.584,-38.8273 295.43,-43.6564 295.43,-43.6564"/>
</g>
</g>
</svg>
