<?xml version="1.0" encoding="UTF-8" standalone="no"?>
<!DOCTYPE svg PUBLIC "-//W3C//DTD SVG 1.1//EN"
 "http://www.w3.org/Graphics/SVG/1.1/DTD/svg11.dtd">
<!-- Generated by graphviz version 2.36.0 (20140111.2315)
 -->
<!-- Title: models_diagram Pages: 1 -->
<svg width="2367pt" height="920pt"
 viewBox="0.00 0.00 2367.00 920.00" xmlns="http://www.w3.org/2000/svg" xmlns:xlink="http://www.w3.org/1999/xlink">
<g id="graph0" class="graph" transform="scale(1 1) rotate(0) translate(4 916)">
<title>models_diagram</title>
<polygon fill="none" stroke="none" points="-4,4 -4,-916 2363,-916 2363,4 -4,4"/>
<!-- _diagram_info -->
<g id="node1" class="node"><title>_diagram_info</title>
<text text-anchor="start" x="8" y="-785.6" font-family="Times,serif" font-size="13.00">Models diagram</text>
<text text-anchor="start" x="8" y="-771.6" font-family="Times,serif" font-size="13.00">Date: Dec 06 2017 &#45; 13:38</text>
<text text-anchor="start" x="8" y="-757.6" font-family="Times,serif" font-size="13.00">Migration version: 20171203105936</text>
<text text-anchor="start" x="8" y="-743.6" font-family="Times,serif" font-size="13.00">Generated by RailRoady 1.5.3</text>
<text text-anchor="start" x="8" y="-729.6" font-family="Times,serif" font-size="13.00">http://railroady.prestonlee.com</text>
</g>
<!-- Category -->
<g id="node2" class="node"><title>Category</title>
<path fill="none" stroke="black" d="M244,-715.5C244,-715.5 464,-715.5 464,-715.5 470,-715.5 476,-721.5 476,-727.5 476,-727.5 476,-794.5 476,-794.5 476,-800.5 470,-806.5 464,-806.5 464,-806.5 244,-806.5 244,-806.5 238,-806.5 232,-800.5 232,-794.5 232,-794.5 232,-727.5 232,-727.5 232,-721.5 238,-715.5 244,-715.5"/>
<text text-anchor="middle" x="354" y="-791.3" font-family="Times,serif" font-size="14.00">Category</text>
<polyline fill="none" stroke="black" points="232,-783.5 476,-783.5 "/>
<text text-anchor="start" x="240" y="-768.3" font-family="Times,serif" font-size="14.00">id :bigint</text>
<text text-anchor="start" x="240" y="-753.3" font-family="Times,serif" font-size="14.00">name :character varying</text>
<text text-anchor="start" x="240" y="-738.3" font-family="Times,serif" font-size="14.00">created_at :timestamp without time zone</text>
<text text-anchor="start" x="240" y="-723.3" font-family="Times,serif" font-size="14.00">updated_at :timestamp without time zone</text>
</g>
<!-- SubCategory -->
<g id="node5" class="node"><title>SubCategory</title>
<path fill="none" stroke="black" d="M244,-437C244,-437 464,-437 464,-437 470,-437 476,-443 476,-449 476,-449 476,-531 476,-531 476,-537 470,-543 464,-543 464,-543 244,-543 244,-543 238,-543 232,-537 232,-531 232,-531 232,-449 232,-449 232,-443 238,-437 244,-437"/>
<text text-anchor="middle" x="354" y="-527.8" font-family="Times,serif" font-size="14.00">SubCategory</text>
<polyline fill="none" stroke="black" points="232,-520 476,-520 "/>
<text text-anchor="start" x="240" y="-504.8" font-family="Times,serif" font-size="14.00">id :bigint</text>
<text text-anchor="start" x="240" y="-489.8" font-family="Times,serif" font-size="14.00">name :character varying</text>
<text text-anchor="start" x="240" y="-474.8" font-family="Times,serif" font-size="14.00">category_id :bigint</text>
<text text-anchor="start" x="240" y="-459.8" font-family="Times,serif" font-size="14.00">created_at :timestamp without time zone</text>
<text text-anchor="start" x="240" y="-444.8" font-family="Times,serif" font-size="14.00">updated_at :timestamp without time zone</text>
</g>
<!-- Category&#45;&gt;SubCategory -->
<g id="edge1" class="edge"><title>Category&#45;&gt;SubCategory</title>
<path fill="none" stroke="#3d50d6" d="M354,-707.272C354,-663.16 354,-600.136 354,-553.494"/>
<ellipse fill="none" stroke="#3d50d6" cx="354" cy="-711.278" rx="4" ry="4"/>
<polygon fill="#3d50d6" stroke="#3d50d6" points="354,-553.208 358.5,-543.208 354,-548.208 354,-543.208 354,-543.208 354,-543.208 354,-548.208 349.5,-543.208 354,-553.208 354,-553.208"/>
</g>
<!-- ProductCharacteristic -->
<g id="node3" class="node"><title>ProductCharacteristic</title>
<path fill="none" stroke="black" d="M244,-0.5C244,-0.5 464,-0.5 464,-0.5 470,-0.5 476,-6.5 476,-12.5 476,-12.5 476,-109.5 476,-109.5 476,-115.5 470,-121.5 464,-121.5 464,-121.5 244,-121.5 244,-121.5 238,-121.5 232,-115.5 232,-109.5 232,-109.5 232,-12.5 232,-12.5 232,-6.5 238,-0.5 244,-0.5"/>
<text text-anchor="middle" x="354" y="-106.3" font-family="Times,serif" font-size="14.00">ProductCharacteristic</text>
<polyline fill="none" stroke="black" points="232,-98.5 476,-98.5 "/>
<text text-anchor="start" x="240" y="-83.3" font-family="Times,serif" font-size="14.00">id :bigint</text>
<text text-anchor="start" x="240" y="-68.3" font-family="Times,serif" font-size="14.00">name :character varying</text>
<text text-anchor="start" x="240" y="-53.3" font-family="Times,serif" font-size="14.00">product_id :bigint</text>
<text text-anchor="start" x="240" y="-38.3" font-family="Times,serif" font-size="14.00">characteristic_id :bigint</text>
<text text-anchor="start" x="240" y="-23.3" font-family="Times,serif" font-size="14.00">created_at :timestamp without time zone</text>
<text text-anchor="start" x="240" y="-8.3" font-family="Times,serif" font-size="14.00">updated_at :timestamp without time zone</text>
</g>
<!-- Address -->
<g id="node4" class="node"><title>Address</title>
<path fill="none" stroke="black" d="M541,-407C541,-407 761,-407 761,-407 767,-407 773,-413 773,-419 773,-419 773,-561 773,-561 773,-567 767,-573 761,-573 761,-573 541,-573 541,-573 535,-573 529,-567 529,-561 529,-561 529,-419 529,-419 529,-413 535,-407 541,-407"/>
<text text-anchor="middle" x="651" y="-557.8" font-family="Times,serif" font-size="14.00">Address</text>
<polyline fill="none" stroke="black" points="529,-550 773,-550 "/>
<text text-anchor="start" x="537" y="-534.8" font-family="Times,serif" font-size="14.00">id :bigint</text>
<text text-anchor="start" x="537" y="-519.8" font-family="Times,serif" font-size="14.00">country :character varying</text>
<text text-anchor="start" x="537" y="-504.8" font-family="Times,serif" font-size="14.00">county :character varying</text>
<text text-anchor="start" x="537" y="-489.8" font-family="Times,serif" font-size="14.00">city :character varying</text>
<text text-anchor="start" x="537" y="-474.8" font-family="Times,serif" font-size="14.00">address :character varying</text>
<text text-anchor="start" x="537" y="-459.8" font-family="Times,serif" font-size="14.00">user_id :bigint</text>
<text text-anchor="start" x="537" y="-444.8" font-family="Times,serif" font-size="14.00">created_at :timestamp without time zone</text>
<text text-anchor="start" x="537" y="-429.8" font-family="Times,serif" font-size="14.00">updated_at :timestamp without time zone</text>
<text text-anchor="start" x="537" y="-414.8" font-family="Times,serif" font-size="14.00">phone_number :character varying</text>
</g>
<!-- Product -->
<g id="node14" class="node"><title>Product</title>
<path fill="none" stroke="black" d="M83,-158.5C83,-158.5 343,-158.5 343,-158.5 349,-158.5 355,-164.5 355,-170.5 355,-170.5 355,-357.5 355,-357.5 355,-363.5 349,-369.5 343,-369.5 343,-369.5 83,-369.5 83,-369.5 77,-369.5 71,-363.5 71,-357.5 71,-357.5 71,-170.5 71,-170.5 71,-164.5 77,-158.5 83,-158.5"/>
<text text-anchor="middle" x="213" y="-354.3" font-family="Times,serif" font-size="14.00">Product</text>
<polyline fill="none" stroke="black" points="71,-346.5 355,-346.5 "/>
<text text-anchor="start" x="79" y="-331.3" font-family="Times,serif" font-size="14.00">id :bigint</text>
<text text-anchor="start" x="79" y="-316.3" font-family="Times,serif" font-size="14.00">name :character varying</text>
<text text-anchor="start" x="79" y="-301.3" font-family="Times,serif" font-size="14.00">description :text</text>
<text text-anchor="start" x="79" y="-286.3" font-family="Times,serif" font-size="14.00">price :double precision</text>
<text text-anchor="start" x="79" y="-271.3" font-family="Times,serif" font-size="14.00">promotion_price :double precision</text>
<text text-anchor="start" x="79" y="-256.3" font-family="Times,serif" font-size="14.00">sub_category_id :bigint</text>
<text text-anchor="start" x="79" y="-241.3" font-family="Times,serif" font-size="14.00">created_at :timestamp without time zone</text>
<text text-anchor="start" x="79" y="-226.3" font-family="Times,serif" font-size="14.00">updated_at :timestamp without time zone</text>
<text text-anchor="start" x="79" y="-211.3" font-family="Times,serif" font-size="14.00">image_file_name :character varying</text>
<text text-anchor="start" x="79" y="-196.3" font-family="Times,serif" font-size="14.00">image_content_type :character varying</text>
<text text-anchor="start" x="79" y="-181.3" font-family="Times,serif" font-size="14.00">image_file_size :integer</text>
<text text-anchor="start" x="79" y="-166.3" font-family="Times,serif" font-size="14.00">image_updated_at :timestamp without time zone</text>
</g>
<!-- SubCategory&#45;&gt;Product -->
<g id="edge2" class="edge"><title>SubCategory&#45;&gt;Product</title>
<path fill="none" stroke="#147d94" d="M316.596,-429.578C306.649,-413.776 295.565,-396.167 284.45,-378.509"/>
<ellipse fill="none" stroke="#147d94" cx="318.989" cy="-433.379" rx="4.00002" ry="4.00002"/>
<polygon fill="#147d94" stroke="#147d94" points="284.323,-378.307 282.804,-367.447 281.659,-374.075 278.995,-369.844 278.995,-369.844 278.995,-369.844 281.659,-374.075 275.187,-372.241 284.323,-378.307 284.323,-378.307"/>
</g>
<!-- Characteristic -->
<g id="node15" class="node"><title>Characteristic</title>
<path fill="none" stroke="black" d="M385,-203.5C385,-203.5 605,-203.5 605,-203.5 611,-203.5 617,-209.5 617,-215.5 617,-215.5 617,-312.5 617,-312.5 617,-318.5 611,-324.5 605,-324.5 605,-324.5 385,-324.5 385,-324.5 379,-324.5 373,-318.5 373,-312.5 373,-312.5 373,-215.5 373,-215.5 373,-209.5 379,-203.5 385,-203.5"/>
<text text-anchor="middle" x="495" y="-309.3" font-family="Times,serif" font-size="14.00">Characteristic</text>
<polyline fill="none" stroke="black" points="373,-301.5 617,-301.5 "/>
<text text-anchor="start" x="381" y="-286.3" font-family="Times,serif" font-size="14.00">id :bigint</text>
<text text-anchor="start" x="381" y="-271.3" font-family="Times,serif" font-size="14.00">name :character varying</text>
<text text-anchor="start" x="381" y="-256.3" font-family="Times,serif" font-size="14.00">sub_category_id :bigint</text>
<text text-anchor="start" x="381" y="-241.3" font-family="Times,serif" font-size="14.00">created_at :timestamp without time zone</text>
<text text-anchor="start" x="381" y="-226.3" font-family="Times,serif" font-size="14.00">updated_at :timestamp without time zone</text>
<text text-anchor="start" x="381" y="-211.3" font-family="Times,serif" font-size="14.00">allow_search :boolean</text>
</g>
<!-- SubCategory&#45;&gt;Characteristic -->
<g id="edge3" class="edge"><title>SubCategory&#45;&gt;Characteristic</title>
<path fill="none" stroke="#b30e56" d="M391.16,-429.966C409.82,-400.322 432.529,-364.245 451.946,-333.398"/>
<ellipse fill="none" stroke="#b30e56" cx="389.011" cy="-433.379" rx="4.00002" ry="4.00002"/>
<polygon fill="#b30e56" stroke="#b30e56" points="452.002,-333.309 461.138,-327.243 454.666,-329.077 457.329,-324.846 457.329,-324.846 457.329,-324.846 454.666,-329.077 453.521,-322.448 452.002,-333.309 452.002,-333.309"/>
</g>
<!-- ApplicationRecord -->
<g id="node6" class="node"><title>ApplicationRecord</title>
<ellipse fill="none" stroke="black" cx="903" cy="-761" rx="77.0154" ry="18"/>
<text text-anchor="middle" x="903" y="-757.3" font-family="Times,serif" font-size="14.00">ApplicationRecord</text>
</g>
<!-- Order -->
<g id="node7" class="node"><title>Order</title>
<path fill="none" stroke="black" d="M1010,-708C1010,-708 1230,-708 1230,-708 1236,-708 1242,-714 1242,-720 1242,-720 1242,-802 1242,-802 1242,-808 1236,-814 1230,-814 1230,-814 1010,-814 1010,-814 1004,-814 998,-808 998,-802 998,-802 998,-720 998,-720 998,-714 1004,-708 1010,-708"/>
<text text-anchor="middle" x="1120" y="-798.8" font-family="Times,serif" font-size="14.00">Order</text>
<polyline fill="none" stroke="black" points="998,-791 1242,-791 "/>
<text text-anchor="start" x="1006" y="-775.8" font-family="Times,serif" font-size="14.00">id :bigint</text>
<text text-anchor="start" x="1006" y="-760.8" font-family="Times,serif" font-size="14.00">completed :boolean</text>
<text text-anchor="start" x="1006" y="-745.8" font-family="Times,serif" font-size="14.00">address_id :bigint</text>
<text text-anchor="start" x="1006" y="-730.8" font-family="Times,serif" font-size="14.00">created_at :timestamp without time zone</text>
<text text-anchor="start" x="1006" y="-715.8" font-family="Times,serif" font-size="14.00">updated_at :timestamp without time zone</text>
</g>
<!-- OrderItem -->
<g id="node13" class="node"><title>OrderItem</title>
<path fill="none" stroke="black" d="M1010,-414.5C1010,-414.5 1230,-414.5 1230,-414.5 1236,-414.5 1242,-420.5 1242,-426.5 1242,-426.5 1242,-553.5 1242,-553.5 1242,-559.5 1236,-565.5 1230,-565.5 1230,-565.5 1010,-565.5 1010,-565.5 1004,-565.5 998,-559.5 998,-553.5 998,-553.5 998,-426.5 998,-426.5 998,-420.5 1004,-414.5 1010,-414.5"/>
<text text-anchor="middle" x="1120" y="-550.3" font-family="Times,serif" font-size="14.00">OrderItem</text>
<polyline fill="none" stroke="black" points="998,-542.5 1242,-542.5 "/>
<text text-anchor="start" x="1006" y="-527.3" font-family="Times,serif" font-size="14.00">id :bigint</text>
<text text-anchor="start" x="1006" y="-512.3" font-family="Times,serif" font-size="14.00">price :double precision</text>
<text text-anchor="start" x="1006" y="-497.3" font-family="Times,serif" font-size="14.00">quantity :integer</text>
<text text-anchor="start" x="1006" y="-482.3" font-family="Times,serif" font-size="14.00">product_id :bigint</text>
<text text-anchor="start" x="1006" y="-467.3" font-family="Times,serif" font-size="14.00">order_id :bigint</text>
<text text-anchor="start" x="1006" y="-452.3" font-family="Times,serif" font-size="14.00">user_id :bigint</text>
<text text-anchor="start" x="1006" y="-437.3" font-family="Times,serif" font-size="14.00">created_at :timestamp without time zone</text>
<text text-anchor="start" x="1006" y="-422.3" font-family="Times,serif" font-size="14.00">updated_at :timestamp without time zone</text>
</g>
<!-- Order&#45;&gt;OrderItem -->
<g id="edge4" class="edge"><title>Order&#45;&gt;OrderItem</title>
<path fill="none" stroke="#4a458e" d="M1120,-699.559C1120,-663.041 1120,-615.94 1120,-575.741"/>
<ellipse fill="none" stroke="#4a458e" cx="1120" cy="-703.815" rx="4" ry="4"/>
<polygon fill="#4a458e" stroke="#4a458e" points="1120,-575.681 1124.5,-565.681 1120,-570.681 1120,-565.681 1120,-565.681 1120,-565.681 1120,-570.681 1115.5,-565.681 1120,-575.681 1120,-575.681"/>
</g>
<!-- Ckeditor::AttachmentFile -->
<g id="node8" class="node"><title>Ckeditor::AttachmentFile</title>
<path fill="none" stroke="black" d="M1272,-670.5C1272,-670.5 1492,-670.5 1492,-670.5 1498,-670.5 1504,-676.5 1504,-682.5 1504,-682.5 1504,-839.5 1504,-839.5 1504,-845.5 1498,-851.5 1492,-851.5 1492,-851.5 1272,-851.5 1272,-851.5 1266,-851.5 1260,-845.5 1260,-839.5 1260,-839.5 1260,-682.5 1260,-682.5 1260,-676.5 1266,-670.5 1272,-670.5"/>
<text text-anchor="middle" x="1382" y="-836.3" font-family="Times,serif" font-size="14.00">Ckeditor::AttachmentFile</text>
<polyline fill="none" stroke="black" points="1260,-828.5 1504,-828.5 "/>
<text text-anchor="start" x="1268" y="-813.3" font-family="Times,serif" font-size="14.00">id :bigint</text>
<text text-anchor="start" x="1268" y="-798.3" font-family="Times,serif" font-size="14.00">data_file_name :character varying</text>
<text text-anchor="start" x="1268" y="-783.3" font-family="Times,serif" font-size="14.00">data_content_type :character varying</text>
<text text-anchor="start" x="1268" y="-768.3" font-family="Times,serif" font-size="14.00">data_file_size :integer</text>
<text text-anchor="start" x="1268" y="-753.3" font-family="Times,serif" font-size="14.00">data_fingerprint :character varying</text>
<text text-anchor="start" x="1268" y="-738.3" font-family="Times,serif" font-size="14.00">type :character varying(30)</text>
<text text-anchor="start" x="1268" y="-723.3" font-family="Times,serif" font-size="14.00">width :integer</text>
<text text-anchor="start" x="1268" y="-708.3" font-family="Times,serif" font-size="14.00">height :integer</text>
<text text-anchor="start" x="1268" y="-693.3" font-family="Times,serif" font-size="14.00">created_at :timestamp without time zone</text>
<text text-anchor="start" x="1268" y="-678.3" font-family="Times,serif" font-size="14.00">updated_at :timestamp without time zone</text>
</g>
<!-- Ckeditor::Picture -->
<g id="node9" class="node"><title>Ckeditor::Picture</title>
<path fill="none" stroke="black" d="M1534,-670.5C1534,-670.5 1754,-670.5 1754,-670.5 1760,-670.5 1766,-676.5 1766,-682.5 1766,-682.5 1766,-839.5 1766,-839.5 1766,-845.5 1760,-851.5 1754,-851.5 1754,-851.5 1534,-851.5 1534,-851.5 1528,-851.5 1522,-845.5 1522,-839.5 1522,-839.5 1522,-682.5 1522,-682.5 1522,-676.5 1528,-670.5 1534,-670.5"/>
<text text-anchor="middle" x="1644" y="-836.3" font-family="Times,serif" font-size="14.00">Ckeditor::Picture</text>
<polyline fill="none" stroke="black" points="1522,-828.5 1766,-828.5 "/>
<text text-anchor="start" x="1530" y="-813.3" font-family="Times,serif" font-size="14.00">id :bigint</text>
<text text-anchor="start" x="1530" y="-798.3" font-family="Times,serif" font-size="14.00">data_file_name :character varying</text>
<text text-anchor="start" x="1530" y="-783.3" font-family="Times,serif" font-size="14.00">data_content_type :character varying</text>
<text text-anchor="start" x="1530" y="-768.3" font-family="Times,serif" font-size="14.00">data_file_size :integer</text>
<text text-anchor="start" x="1530" y="-753.3" font-family="Times,serif" font-size="14.00">data_fingerprint :character varying</text>
<text text-anchor="start" x="1530" y="-738.3" font-family="Times,serif" font-size="14.00">type :character varying(30)</text>
<text text-anchor="start" x="1530" y="-723.3" font-family="Times,serif" font-size="14.00">width :integer</text>
<text text-anchor="start" x="1530" y="-708.3" font-family="Times,serif" font-size="14.00">height :integer</text>
<text text-anchor="start" x="1530" y="-693.3" font-family="Times,serif" font-size="14.00">created_at :timestamp without time zone</text>
<text text-anchor="start" x="1530" y="-678.3" font-family="Times,serif" font-size="14.00">updated_at :timestamp without time zone</text>
</g>
<!-- Ckeditor::Asset -->
<g id="node10" class="node"><title>Ckeditor::Asset</title>
<path fill="none" stroke="black" d="M1796,-670.5C1796,-670.5 2016,-670.5 2016,-670.5 2022,-670.5 2028,-676.5 2028,-682.5 2028,-682.5 2028,-839.5 2028,-839.5 2028,-845.5 2022,-851.5 2016,-851.5 2016,-851.5 1796,-851.5 1796,-851.5 1790,-851.5 1784,-845.5 1784,-839.5 1784,-839.5 1784,-682.5 1784,-682.5 1784,-676.5 1790,-670.5 1796,-670.5"/>
<text text-anchor="middle" x="1906" y="-836.3" font-family="Times,serif" font-size="14.00">Ckeditor::Asset</text>
<polyline fill="none" stroke="black" points="1784,-828.5 2028,-828.5 "/>
<text text-anchor="start" x="1792" y="-813.3" font-family="Times,serif" font-size="14.00">id :bigint</text>
<text text-anchor="start" x="1792" y="-798.3" font-family="Times,serif" font-size="14.00">data_file_name :character varying</text>
<text text-anchor="start" x="1792" y="-783.3" font-family="Times,serif" font-size="14.00">data_content_type :character varying</text>
<text text-anchor="start" x="1792" y="-768.3" font-family="Times,serif" font-size="14.00">data_file_size :integer</text>
<text text-anchor="start" x="1792" y="-753.3" font-family="Times,serif" font-size="14.00">data_fingerprint :character varying</text>
<text text-anchor="start" x="1792" y="-738.3" font-family="Times,serif" font-size="14.00">type :character varying(30)</text>
<text text-anchor="start" x="1792" y="-723.3" font-family="Times,serif" font-size="14.00">width :integer</text>
<text text-anchor="start" x="1792" y="-708.3" font-family="Times,serif" font-size="14.00">height :integer</text>
<text text-anchor="start" x="1792" y="-693.3" font-family="Times,serif" font-size="14.00">created_at :timestamp without time zone</text>
<text text-anchor="start" x="1792" y="-678.3" font-family="Times,serif" font-size="14.00">updated_at :timestamp without time zone</text>
</g>
<!-- User -->
<g id="node11" class="node"><title>User</title>
<path fill="none" stroke="black" d="M506.5,-610.5C506.5,-610.5 795.5,-610.5 795.5,-610.5 801.5,-610.5 807.5,-616.5 807.5,-622.5 807.5,-622.5 807.5,-899.5 807.5,-899.5 807.5,-905.5 801.5,-911.5 795.5,-911.5 795.5,-911.5 506.5,-911.5 506.5,-911.5 500.5,-911.5 494.5,-905.5 494.5,-899.5 494.5,-899.5 494.5,-622.5 494.5,-622.5 494.5,-616.5 500.5,-610.5 506.5,-610.5"/>
<text text-anchor="middle" x="651" y="-896.3" font-family="Times,serif" font-size="14.00">User</text>
<polyline fill="none" stroke="black" points="494.5,-888.5 807.5,-888.5 "/>
<text text-anchor="start" x="502.5" y="-873.3" font-family="Times,serif" font-size="14.00">id :bigint</text>
<text text-anchor="start" x="502.5" y="-858.3" font-family="Times,serif" font-size="14.00">email :character varying</text>
<text text-anchor="start" x="502.5" y="-843.3" font-family="Times,serif" font-size="14.00">encrypted_password :character varying</text>
<text text-anchor="start" x="502.5" y="-828.3" font-family="Times,serif" font-size="14.00">reset_password_token :character varying</text>
<text text-anchor="start" x="502.5" y="-813.3" font-family="Times,serif" font-size="14.00">reset_password_sent_at :timestamp without time zone</text>
<text text-anchor="start" x="502.5" y="-798.3" font-family="Times,serif" font-size="14.00">remember_created_at :timestamp without time zone</text>
<text text-anchor="start" x="502.5" y="-783.3" font-family="Times,serif" font-size="14.00">sign_in_count :integer</text>
<text text-anchor="start" x="502.5" y="-768.3" font-family="Times,serif" font-size="14.00">current_sign_in_at :timestamp without time zone</text>
<text text-anchor="start" x="502.5" y="-753.3" font-family="Times,serif" font-size="14.00">last_sign_in_at :timestamp without time zone</text>
<text text-anchor="start" x="502.5" y="-738.3" font-family="Times,serif" font-size="14.00">current_sign_in_ip :inet</text>
<text text-anchor="start" x="502.5" y="-723.3" font-family="Times,serif" font-size="14.00">last_sign_in_ip :inet</text>
<text text-anchor="start" x="502.5" y="-708.3" font-family="Times,serif" font-size="14.00">created_at :timestamp without time zone</text>
<text text-anchor="start" x="502.5" y="-693.3" font-family="Times,serif" font-size="14.00">updated_at :timestamp without time zone</text>
<text text-anchor="start" x="502.5" y="-678.3" font-family="Times,serif" font-size="14.00">first_name :character varying</text>
<text text-anchor="start" x="502.5" y="-663.3" font-family="Times,serif" font-size="14.00">last_name :character varying</text>
<text text-anchor="start" x="502.5" y="-648.3" font-family="Times,serif" font-size="14.00">confirmation_token :character varying</text>
<text text-anchor="start" x="502.5" y="-633.3" font-family="Times,serif" font-size="14.00">confirmed_at :timestamp without time zone</text>
<text text-anchor="start" x="502.5" y="-618.3" font-family="Times,serif" font-size="14.00">confirmation_sent_at :timestamp without time zone</text>
</g>
<!-- User&#45;&gt;Address -->
<g id="edge5" class="edge"><title>User&#45;&gt;Address</title>
<path fill="none" stroke="#70d42f" d="M651,-601.88C651,-595.592 651,-589.375 651,-583.286"/>
<ellipse fill="none" stroke="#70d42f" cx="651" cy="-606.162" rx="4" ry="4"/>
<polygon fill="#70d42f" stroke="#70d42f" points="651,-583.17 655.5,-573.17 651,-578.17 651,-573.17 651,-573.17 651,-573.17 651,-578.17 646.5,-573.17 651,-583.17 651,-583.17"/>
</g>
<!-- AdminUser -->
<g id="node12" class="node"><title>AdminUser</title>
<path fill="none" stroke="black" d="M2058.5,-648C2058.5,-648 2347.5,-648 2347.5,-648 2353.5,-648 2359.5,-654 2359.5,-660 2359.5,-660 2359.5,-862 2359.5,-862 2359.5,-868 2353.5,-874 2347.5,-874 2347.5,-874 2058.5,-874 2058.5,-874 2052.5,-874 2046.5,-868 2046.5,-862 2046.5,-862 2046.5,-660 2046.5,-660 2046.5,-654 2052.5,-648 2058.5,-648"/>
<text text-anchor="middle" x="2203" y="-858.8" font-family="Times,serif" font-size="14.00">AdminUser</text>
<polyline fill="none" stroke="black" points="2046.5,-851 2359.5,-851 "/>
<text text-anchor="start" x="2054.5" y="-835.8" font-family="Times,serif" font-size="14.00">id :bigint</text>
<text text-anchor="start" x="2054.5" y="-820.8" font-family="Times,serif" font-size="14.00">email :character varying</text>
<text text-anchor="start" x="2054.5" y="-805.8" font-family="Times,serif" font-size="14.00">encrypted_password :character varying</text>
<text text-anchor="start" x="2054.5" y="-790.8" font-family="Times,serif" font-size="14.00">reset_password_token :character varying</text>
<text text-anchor="start" x="2054.5" y="-775.8" font-family="Times,serif" font-size="14.00">reset_password_sent_at :timestamp without time zone</text>
<text text-anchor="start" x="2054.5" y="-760.8" font-family="Times,serif" font-size="14.00">remember_created_at :timestamp without time zone</text>
<text text-anchor="start" x="2054.5" y="-745.8" font-family="Times,serif" font-size="14.00">sign_in_count :integer</text>
<text text-anchor="start" x="2054.5" y="-730.8" font-family="Times,serif" font-size="14.00">current_sign_in_at :timestamp without time zone</text>
<text text-anchor="start" x="2054.5" y="-715.8" font-family="Times,serif" font-size="14.00">last_sign_in_at :timestamp without time zone</text>
<text text-anchor="start" x="2054.5" y="-700.8" font-family="Times,serif" font-size="14.00">current_sign_in_ip :inet</text>
<text text-anchor="start" x="2054.5" y="-685.8" font-family="Times,serif" font-size="14.00">last_sign_in_ip :inet</text>
<text text-anchor="start" x="2054.5" y="-670.8" font-family="Times,serif" font-size="14.00">created_at :timestamp without time zone</text>
<text text-anchor="start" x="2054.5" y="-655.8" font-family="Times,serif" font-size="14.00">updated_at :timestamp without time zone</text>
</g>
<!-- Product&#45;&gt;ProductCharacteristic -->
<g id="edge6" class="edge"><title>Product&#45;&gt;ProductCharacteristic</title>
<path fill="none" stroke="#0b5208" d="M291.143,-151.604C296.215,-144.375 301.233,-137.221 306.091,-130.295"/>
<ellipse fill="none" stroke="#0b5208" cx="288.688" cy="-155.104" rx="4.00002" ry="4.00002"/>
<polygon fill="#0b5208" stroke="#0b5208" points="306.409,-129.843 315.836,-124.241 309.28,-125.75 312.152,-121.656 312.152,-121.656 312.152,-121.656 309.28,-125.75 308.468,-119.072 306.409,-129.843 306.409,-129.843"/>
</g>
<!-- Characteristic&#45;&gt;ProductCharacteristic -->
<g id="edge7" class="edge"><title>Characteristic&#45;&gt;ProductCharacteristic</title>
<path fill="none" stroke="#859bf2" d="M448.347,-196.494C433.355,-175.124 416.733,-151.429 401.67,-129.955"/>
<ellipse fill="none" stroke="#859bf2" cx="450.78" cy="-199.963" rx="4.00002" ry="4.00002"/>
<polygon fill="#859bf2" stroke="#859bf2" points="401.504,-129.719 399.445,-118.948 398.633,-125.625 395.761,-121.532 395.761,-121.532 395.761,-121.532 398.633,-125.625 392.077,-124.116 401.504,-129.719 401.504,-129.719"/>
</g>
</g>
</svg>
